<?xml version="1.0" encoding="iso-8859-1"?>
<!-- Generator: Adobe Illustrator 24.3.0, SVG Export Plug-In . SVG Version: 6.00 Build 0)  -->
<svg version="1.1" id="Layer_1" xmlns="http://www.w3.org/2000/svg" xmlns:xlink="http://www.w3.org/1999/xlink" x="0px" y="0px"
	 viewBox="0 0 24 24" style="enable-background:new 0 0 24 24;" xml:space="preserve">
<g style="opacity:0.35;">
	<g>
		<path d="M12,2C6.477,2,2,6.477,2,12c0,1.592,0.382,3.091,1.043,4.427l-1.005,4.019c-0.229,0.915,0.6,1.745,1.516,1.516
			l4.019-1.005C8.909,21.618,10.408,22,12,22c5.523,0,10-4.477,10-10C22,6.477,17.523,2,12,2z"/>
	</g>
</g>
<path d="M16.393,13.467c-0.809-0.809-2.121-0.809-2.93,0l-0.516,0.516l-2.93-2.93l0.516-0.516c0.809-0.809,0.809-2.121,0-2.93
	s-2.121-0.809-2.93,0c-0.517,0.517-0.7,1.239-0.556,1.904c0.123,0.919,0.606,3.029,2.509,4.932c1.903,1.903,4.013,2.386,4.932,2.509
	c0.665,0.144,1.387-0.039,1.904-0.556C17.202,15.587,17.202,14.276,16.393,13.467z"/>
</svg>